<svg xml:space="preserve" viewBox="4.45 2.7 92.25 95.5" y="0px" x="0px" version="1.1" xmlns:xlink="http://www.w3.org/1999/xlink" xmlns="http://www.w3.org/2000/svg" style="max-height: 500px" width="92.25" height="95.5"><g><path d="M35.5,31.6c3.4,7.9,0.9,16.3,0.9,16.3s8.4-14-3.5-26.7C21.1,8.3,18.1,5.5,18.1,5.5l0,0   c-0.5-0.4-1.1-0.6-1.8-0.5c-1,0.3-1.6,1.3-1.4,2.4l11.4,42.7c-3.3-1-7.5-0.6-11.3,1.6c-6.3,3.5-9.4,10.2-6.7,14.9s9.9,5.7,16.2,2.2   c6.1-3.4,9.1-9.6,7-14.3l-7.7-28.8C27,25.5,33.1,25.9,35.5,31.6z" fill="#000000"/><path d="M85.3,45.7c4.5-0.5,7.8-4.6,7.3-9.1c-0.5-4.5-4.6-7.8-9.1-7.3c-0.5,0.1-0.9,0.2-1.4,0.3   c0.3-0.4,0.5-0.8,0.7-1.2c1.8-4.2-0.1-9-4.2-10.8c-4.2-1.8-9,0.1-10.8,4.2c-0.2,0.4-0.3,0.9-0.4,1.3c-0.2-0.4-0.4-0.8-0.7-1.2   c-2.7-3.7-7.8-4.4-11.5-1.7c-3.7,2.7-4.4,7.8-1.7,11.5c0.3,0.4,0.6,0.7,0.9,1c-0.5,0-0.9,0-1.4,0c-4.5,0.5-7.8,4.6-7.3,9.1   c0.5,4.5,4.6,7.8,9.1,7.3c0.5-0.1,0.9-0.2,1.4-0.3c-0.3,0.4-0.5,0.8-0.7,1.2c-1.8,4.2,0.1,9,4.2,10.8c4.2,1.8,9-0.1,10.8-4.2   c0.2-0.4,0.3-0.9,0.4-1.3c0.2,0.4,0.4,0.8,0.7,1.2c2.7,3.7,7.8,4.4,11.5,1.7c3.7-2.7,4.4-7.8,1.7-11.5c-0.3-0.4-0.6-0.7-0.9-1   C84.4,45.8,84.8,45.8,85.3,45.7z M75.7,42.1c-1.6,3.6-5.8,5.3-9.5,3.7c-3.6-1.6-5.3-5.8-3.7-9.5c1.6-3.6,5.8-5.3,9.5-3.7   C75.6,34.3,77.3,38.5,75.7,42.1z" fill="#000000"/><path d="M60.6,79c-0.3-0.2-0.6-0.3-0.9-0.4c0.3-0.1,0.6-0.3,0.9-0.4c2.6-1.6,3.5-5,1.9-7.7c-1.6-2.6-5-3.5-7.7-1.9   c-0.3,0.2-0.5,0.4-0.8,0.6c0-0.3,0.1-0.6,0.1-1c-0.1-3.1-2.6-5.5-5.7-5.5s-5.5,2.6-5.5,5.7c0,0.3,0,0.6,0.1,0.9   c-0.2-0.2-0.5-0.4-0.8-0.5c-2.7-1.5-6.1-0.5-7.6,2.2c-1.5,2.7-0.5,6.1,2.2,7.6c0.3,0.2,0.6,0.3,0.9,0.4c-0.3,0.1-0.6,0.3-0.9,0.4   c-2.6,1.6-3.5,5-1.9,7.7c1.6,2.6,5,3.5,7.7,1.9c0.3-0.2,0.5-0.4,0.8-0.6c0,0.3-0.1,0.6-0.1,1c0.1,3.1,2.6,5.5,5.7,5.5   c3.1-0.1,5.5-2.6,5.5-5.7c0-0.3,0-0.6-0.1-0.9c0.2,0.2,0.5,0.4,0.8,0.5c2.7,1.5,6.1,0.5,7.6-2.2C64.3,83.9,63.3,80.5,60.6,79z    M48.8,83.8c-2.7,0.1-4.9-2.1-5-4.8c-0.1-2.7,2.1-4.9,4.8-5c2.7-0.1,4.9,2.1,5,4.8C53.7,81.5,51.6,83.7,48.8,83.8z" fill="#000000"/></g><text font-family="'Helvetica Neue', Helvetica, Arial-Unicode, Arial, Sans-serif" font-weight="bold" font-size="5px" fill="#000000" y="115" x="0">Created by parkjisun</text><text font-family="'Helvetica Neue', Helvetica, Arial-Unicode, Arial, Sans-serif" font-weight="bold" font-size="5px" fill="#000000" y="120" x="0">from the Noun Project</text></svg>