<!DOCTYPE svg PUBLIC "-//W3C//DTD SVG 1.1//EN" "http://www.w3.org/Graphics/SVG/1.1/DTD/svg11.dtd">
<!-- Uploaded to: SVG Repo, www.svgrepo.com, Transformed by: SVG Repo Mixer Tools -->
<svg fill="#FFFFFF" version="1.1" id="Capa_1" xmlns="http://www.w3.org/2000/svg" xmlns:xlink="http://www.w3.org/1999/xlink" width="800px" height="800px" viewBox="0 0 285.475 285.475" xml:space="preserve" stroke="#FFFFFF">
<g id="SVGRepo_bgCarrier" stroke-width="0"/>
<g id="SVGRepo_tracerCarrier" stroke-linecap="round" stroke-linejoin="round"/>
<g id="SVGRepo_iconCarrier"> <g> <path d="M105.02,45.314c-0.945-9.598-4.588-18.398-10.154-25.642c-8.728,2.646-24.746,10.053-39.996,30.6 c-17.191,23.162-23.845,37.44-26.03,42.87c7.625,4.66,16.56,7.402,26.157,7.402c0,0,1.802-12.35,20.765-33.569 C94.715,45.759,105.02,45.314,105.02,45.314z"/> <path d="M45.51,41.692c15.553-18.543,31.056-27.54,39.784-31.527C76.869,3.786,66.375,0,54.991,0 C27.226,0,4.725,22.509,4.725,50.267c0,13.531,5.37,25.785,14.061,34.82C21.315,78.055,28.313,62.197,45.51,41.692z"/> <path d="M141.663,95.671l-33.855-44.144c0,0-30.25,9.582-44.695,51.11l49.208,26.183l118.725,99.317c0,0,6.001-0.57,12.422-5.406 l18.145,14.209c4.608,3.593,7.57,8.725,8.336,14.415c0.767,5.645-0.719,11.186-4.163,15.597c-3.453,4.412-8.477,7.183-14.136,7.799 c-5.737,0.601-11.407-1.03-16.011-4.63l-7.928-6.203c-2.314-1.817-5.639-1.398-7.441,0.901c-1.807,2.31-1.403,5.639,0.912,7.446 l7.922,6.203c5.852,4.577,12.899,7.011,20.164,7.006c1.17,0,2.341-0.062,3.521-0.191c8.534-0.927,16.115-5.116,21.34-11.801 c5.234-6.686,7.482-15.053,6.327-23.556c-1.145-8.45-5.515-16.031-12.309-21.354l-17.367-13.588 c2.683-3.955,5.002-9.077,6.452-15.746L141.663,95.671z M99.339,104.779c-6.172,0-11.172-5-11.172-11.171 c0-6.173,5-11.172,11.172-11.172c6.172,0,11.177,4.999,11.177,11.172C110.516,99.78,105.511,104.779,99.339,104.779z M141.663,133.901c-2.996,0-5.414-2.428-5.414-5.414c0-2.99,2.423-5.418,5.414-5.418c2.99,0,5.414,2.423,5.414,5.418 C147.076,131.473,144.652,133.901,141.663,133.901z M154.761,145.247c-2.988,0-5.422-2.426-5.422-5.411 c0-2.996,2.434-5.419,5.422-5.419c2.987,0,5.411,2.423,5.411,5.419C160.172,142.826,157.748,145.247,154.761,145.247z"/> </g> </g>
</svg>