<svg fill="#FFFFFF" xmlns="http://www.w3.org/2000/svg"  viewBox="0 0 50 50" width="50px" height="50px"><path d="M 21 5 C 19.714844 5 18.59375 5.792969 17.53125 6.96875 C 16.46875 8.144531 15.523438 9.78125 15.03125 11.75 C 15.03125 11.761719 15.03125 11.769531 15.03125 11.78125 C 14.378906 14.539063 13.363281 20.128906 12.6875 23.9375 C 11.414063 22.167969 9.332031 21 7 21 C 3.15625 21 0 24.15625 0 28 C 0 32.058594 0.992188 36.433594 4.71875 39.6875 C 8.445313 42.941406 14.714844 45 25 45 C 35.285156 45 41.558594 42.890625 45.28125 39.625 C 49.003906 36.359375 50 32.011719 50 28 C 50 24.15625 46.84375 21 43 21 C 40.667969 21 38.585938 22.167969 37.3125 23.9375 C 36.636719 20.128906 35.621094 14.539063 34.96875 11.78125 C 34.480469 9.664063 33.546875 7.992188 32.46875 6.84375 C 31.390625 5.695313 30.214844 5 29 5 C 27.804688 5 26.929688 5.671875 26.21875 6.1875 C 25.863281 6.445313 25.550781 6.695313 25.3125 6.84375 C 25.074219 6.992188 24.917969 7 25 7 C 25.082031 7 24.925781 6.992188 24.6875 6.84375 C 24.449219 6.695313 24.136719 6.445313 23.78125 6.1875 C 23.070313 5.671875 22.195313 5 21 5 Z M 21 7 C 21.304688 7 21.929688 7.328125 22.59375 7.8125 C 22.925781 8.054688 23.253906 8.304688 23.625 8.53125 C 23.996094 8.757813 24.417969 9 25 9 C 25.582031 9 26.003906 8.757813 26.375 8.53125 C 26.746094 8.304688 27.074219 8.054688 27.40625 7.8125 C 28.070313 7.328125 28.695313 7 29 7 C 29.285156 7 30.175781 7.34375 31 8.21875 C 31.824219 9.09375 32.621094 10.4375 33.03125 12.21875 C 33.765625 15.324219 35.175781 23.347656 35.65625 26.125 C 35.382813 26.40625 34.972656 26.742188 34.3125 27.125 C 32.773438 28.019531 29.96875 29 25 29 C 20.03125 29 17.226563 28.019531 15.6875 27.125 C 15.027344 26.742188 14.617188 26.40625 14.34375 26.125 C 14.824219 23.351563 16.230469 15.375 16.96875 12.25 C 16.96875 12.242188 16.96875 12.226563 16.96875 12.21875 C 17.378906 10.601563 18.199219 9.230469 19.03125 8.3125 C 19.867188 7.386719 20.785156 7 21 7 Z M 7 23 C 9.699219 23 11.914063 25.164063 12 27.84375 C 12 27.875 12 27.90625 12 27.9375 C 12 27.957031 12 27.980469 12 28 C 11.996094 28.050781 11.996094 28.105469 12 28.15625 C 12 28.167969 12 28.175781 12 28.1875 C 12.007813 28.207031 12.019531 28.230469 12.03125 28.25 C 12.113281 32.378906 14.097656 34.8125 16.6875 35.90625 C 19.328125 37.023438 22.449219 37 25 37 C 27.570313 37 30.679688 36.96875 33.3125 35.8125 C 35.882813 34.683594 37.875 32.253906 37.96875 28.28125 C 37.980469 28.261719 37.992188 28.238281 38 28.21875 C 38 28.207031 38 28.199219 38 28.1875 C 38.003906 28.125 38.003906 28.0625 38 28 C 38 27.957031 38 27.917969 38 27.875 C 38 27.863281 38 27.855469 38 27.84375 C 38.085938 25.164063 40.300781 23 43 23 C 45.753906 23 48 25.246094 48 28 C 48 31.691406 47.140625 35.316406 43.9375 38.125 C 40.734375 40.933594 35.015625 43 25 43 C 14.984375 43 9.230469 40.984375 6.03125 38.1875 C 2.832031 35.390625 2 31.742188 2 28 C 2 25.246094 4.246094 23 7 23 Z M 14.03125 28.46875 C 14.230469 28.609375 14.449219 28.738281 14.6875 28.875 C 16.597656 29.980469 19.769531 31 25 31 C 30.230469 31 33.402344 29.980469 35.3125 28.875 C 35.550781 28.738281 35.769531 28.609375 35.96875 28.46875 C 35.84375 31.671875 34.496094 33.09375 32.5 33.96875 C 30.40625 34.886719 27.53125 35 25 35 C 22.449219 35 19.550781 34.976563 17.46875 34.09375 C 15.480469 33.253906 14.152344 31.820313 14.03125 28.46875 Z"/></svg>