<svg xml:space="preserve" viewBox="5.14845 3.45 88.5 93" y="0px" x="0px" version="1.1" xmlns:xlink="http://www.w3.org/1999/xlink" xmlns="http://www.w3.org/2000/svg" style="max-height: 500px" width="88.5" height="93"><g><path d="M32.9,54.1l-7.2-27c3.2,0,7.4,0.9,9.3,5.2c3.2,7.3,0.9,15.2,0.8,15.2c-0.1,0.5,0.1,1,0.5,1.2c0.4,0.2,1,0,1.2-0.4   C37.6,48.2,46,33.9,34,21C22.5,8.7,19.6,5.9,19.5,5.8c0,0-0.1-0.1-0.1-0.1c-0.7-0.6-1.7-0.8-2.6-0.6c-0.7,0.2-1.3,0.7-1.7,1.3   c-0.4,0.7-0.5,1.4-0.3,2.2l10.8,40.3c-0.7-0.1-1.4-0.2-2.2-0.2c-2.7,0-5.5,0.7-8,2.2c-3.2,1.8-5.7,4.3-7,7.3c-1.4,3-1.4,6.1,0,8.6   c1.6,2.9,5,4.7,9.1,4.7c0,0,0,0,0,0c2.7,0,5.5-0.8,8-2.2C31.8,65.8,35,59.1,32.9,54.1z M24.6,67.6c-2.3,1.3-4.7,1.9-7.1,1.9   c0,0,0,0,0,0c-3.4,0-6.1-1.4-7.4-3.7c-1.1-2-1.1-4.4,0.1-6.9c1.2-2.6,3.4-4.8,6.2-6.4c2.3-1.3,4.7-1.9,7.1-1.9   c1.1,0,2.2,0.2,3.2,0.5c0.3,0.1,0.7,0,1-0.2c0.3-0.2,0.4-0.6,0.3-0.9L16.7,8.1c-0.1-0.2,0-0.5,0.1-0.7c0.1-0.2,0.3-0.4,0.6-0.4   c0.3-0.1,0.6,0,0.9,0.2c0,0,0,0,0,0c0.4,0.4,3.8,3.7,14.4,15.2c5.5,5.9,6.4,12,5.9,16.7c-0.2-2.3-0.7-4.9-1.8-7.5   c-1.8-4.1-5.8-6.4-11.2-6.4c-0.4,0-0.8,0-1.2,0c-0.3,0-0.6,0.2-0.7,0.4c-0.2,0.2-0.2,0.5-0.1,0.8L31,54.7c0,0,0,0.1,0,0.1   C32.9,58.9,30.1,64.5,24.6,67.6z"/><path d="M71.9,32.2c-1-0.4-2.1-0.7-3.2-0.7c-3.2,0-6,1.9-7.3,4.8c-0.9,2-0.9,4.1-0.1,6.1c0.8,2,2.3,3.6,4.2,4.4   c1,0.4,2.1,0.7,3.2,0.7c3.2,0,6-1.9,7.3-4.8c0.9-2,0.9-4.1,0.1-6.1C75.4,34.6,73.9,33,71.9,32.2z M74.3,41.9   c-1,2.2-3.2,3.6-5.6,3.6c-0.8,0-1.7-0.2-2.4-0.5c-1.5-0.7-2.6-1.8-3.2-3.3c-0.6-1.5-0.6-3.2,0.1-4.6c1-2.2,3.1-3.6,5.6-3.6   c0.8,0,1.7,0.2,2.4,0.5c1.5,0.7,2.6,1.8,3.2,3.3C74.9,38.8,74.9,40.4,74.3,41.9z"/><path d="M92.6,36.8c-0.5-4.7-4.6-8.3-9.4-8c1.7-4.4-0.4-9.5-4.8-11.4c-1.1-0.5-2.4-0.8-3.6-0.8c-3.4,0-6.5,1.9-8,4.9   c-1.7-2.1-4.3-3.3-6.9-3.3c-1.9,0-3.8,0.6-5.3,1.7c-3.9,2.8-4.8,8.2-2.2,12.2c-2.2,0.4-4.1,1.5-5.5,3.3c-1.5,1.9-2.2,4.2-1.9,6.6   c0.5,4.7,4.7,8.3,9.4,8c-1.7,4.4,0.4,9.5,4.8,11.4c1.1,0.5,2.4,0.8,3.6,0.8c3.4,0,6.5-1.9,8-4.9c1.7,2.1,4.3,3.3,6.9,3.3   c1.9,0,3.8-0.6,5.3-1.7c3.9-2.8,4.8-8.2,2.2-12.2C89.8,45.9,93.1,41.6,92.6,36.8z M84.4,44.8c-0.4,0-0.8,0-1.2,0   c-0.4,0-0.8,0.2-0.9,0.6c-0.2,0.4-0.1,0.8,0.2,1.1c0.3,0.3,0.6,0.6,0.8,0.9c2.3,3.1,1.6,7.6-1.5,9.9c-1.2,0.9-2.7,1.4-4.2,1.4   c-2.2,0-4.4-1.1-5.7-2.9c-0.2-0.3-0.4-0.6-0.6-1c-0.2-0.4-0.6-0.6-1-0.5c-0.4,0-0.7,0.3-0.8,0.7c-0.1,0.4-0.2,0.8-0.4,1.1   c-1.1,2.6-3.7,4.2-6.5,4.2c-1,0-1.9-0.2-2.8-0.6c-3.6-1.6-5.2-5.7-3.6-9.3c0.1-0.3,0.3-0.7,0.6-1.1c0.2-0.3,0.2-0.8,0-1.1   c-0.2-0.3-0.5-0.4-0.8-0.4c-0.1,0-0.2,0-0.3,0c-0.4,0.1-0.8,0.2-1.2,0.2c-0.3,0-0.5,0-0.8,0c-3.6,0-6.6-2.7-7-6.3   c-0.2-1.9,0.3-3.7,1.5-5.2c1.2-1.5,2.9-2.4,4.7-2.6c0.4,0,0.8,0,1.2,0c0.4,0,0.8-0.2,0.9-0.6c0.2-0.4,0.1-0.8-0.2-1.1   c-0.3-0.3-0.6-0.6-0.8-0.9c-2.3-3.1-1.6-7.6,1.5-9.9c1.2-0.9,2.7-1.4,4.2-1.4c2.2,0,4.4,1.1,5.7,2.9c0.2,0.3,0.4,0.6,0.6,1   c0.2,0.4,0.6,0.6,1,0.5c0.4,0,0.7-0.3,0.8-0.7c0.1-0.4,0.2-0.8,0.4-1.1c1.1-2.6,3.7-4.2,6.5-4.2c1,0,1.9,0.2,2.8,0.6   c1.7,0.8,3.1,2.1,3.7,3.9c0.7,1.8,0.6,3.7-0.1,5.4c-0.2,0.3-0.3,0.7-0.6,1.1c-0.2,0.3-0.2,0.8,0,1.1c0.2,0.3,0.7,0.5,1,0.4   c0.4-0.1,0.8-0.2,1.2-0.2c0.3,0,0.5,0,0.8,0c3.6,0,6.6,2.7,7,6.3C91.1,40.9,88.3,44.4,84.4,44.8z"/><path d="M48.8,72.6l-0.1,0c-3.2,0.1-5.7,2.7-5.6,5.9c0.1,3.1,2.6,5.6,5.7,5.6l0.1,0c3.2-0.1,5.7-2.7,5.6-5.9   C54.4,75.1,51.9,72.6,48.8,72.6z M48.9,82.1L48.9,82.1c-2.2,0-3.9-1.7-3.9-3.7c0-2.1,1.6-3.9,3.7-3.9l0.1,0c2.1,0,3.8,1.7,3.8,3.7   C52.6,80.3,51,82.1,48.9,82.1z"/><path d="M61.5,78c2.5-2,3.2-5.6,1.5-8.4c-1.2-1.9-3.2-3.1-5.5-3.1c-0.9,0-1.8,0.2-2.6,0.6c-0.5-3.1-3.2-5.5-6.4-5.5l-0.2,0   c-1.7,0-3.3,0.7-4.5,2c-1,1-1.6,2.4-1.7,3.8c-0.8-0.3-1.6-0.5-2.4-0.5c-2.4,0-4.5,1.3-5.6,3.3c-1.6,2.9-0.7,6.4,1.9,8.3   c-2.5,2-3.2,5.6-1.5,8.4c1.2,1.9,3.2,3.1,5.5,3.1c0.9,0,1.8-0.2,2.6-0.6c0.5,3.1,3.2,5.5,6.4,5.5l0.2,0c1.7,0,3.3-0.7,4.5-2   c1-1,1.6-2.4,1.7-3.8c0.8,0.3,1.6,0.5,2.4,0.5c0,0,0,0,0,0c2.4,0,4.5-1.3,5.6-3.3C65,83.4,64.1,79.9,61.5,78z M61.7,85.4   c-0.8,1.4-2.3,2.3-4,2.3h0c-0.8,0-1.5-0.2-2.2-0.6c-0.2-0.1-0.4-0.3-0.6-0.4c-0.3-0.3-0.8-0.3-1.1-0.1c-0.3,0.2-0.5,0.6-0.4,1   c0.1,0.3,0.1,0.5,0.1,0.8c0,1.2-0.4,2.3-1.2,3.2c-0.8,0.9-2,1.4-3.2,1.4l-0.1,0c-2.4,0-4.5-2-4.5-4.4c0-0.2,0-0.5,0.1-0.8   c0.1-0.4-0.1-0.8-0.5-1c-0.1-0.1-0.3-0.1-0.5-0.1c-0.2,0-0.5,0.1-0.6,0.2c-0.2,0.2-0.4,0.3-0.6,0.5c-0.7,0.4-1.5,0.7-2.3,0.7   c-1.6,0-3-0.8-3.9-2.2c-1.3-2.1-0.6-4.9,1.5-6.2c0.2-0.1,0.4-0.2,0.7-0.3c0.4-0.1,0.6-0.5,0.6-0.9s-0.3-0.8-0.6-0.9   c-0.3-0.1-0.5-0.2-0.7-0.3c-2.2-1.2-3-3.9-1.8-6.1c0.8-1.4,2.3-2.3,4-2.3c0.8,0,1.5,0.2,2.2,0.6c0.2,0.1,0.4,0.3,0.6,0.4   c0.3,0.3,0.8,0.3,1.1,0.1c0.3-0.2,0.5-0.6,0.4-1c-0.1-0.3-0.1-0.5-0.1-0.8c0-1.2,0.4-2.3,1.2-3.2c0.8-0.9,2-1.4,3.2-1.4l0.1,0   c2.4,0,4.5,2,4.5,4.4c0,0.2,0,0.5-0.1,0.8c-0.1,0.4,0.1,0.8,0.5,1c0.4,0.2,0.8,0.1,1.1-0.1c0.2-0.2,0.4-0.3,0.6-0.5   c0.7-0.4,1.5-0.7,2.3-0.7c1.6,0,3,0.8,3.9,2.2c1.3,2.1,0.6,4.9-1.5,6.2c-0.2,0.1-0.4,0.2-0.7,0.3c-0.4,0.1-0.6,0.5-0.6,0.9   c0,0.4,0.3,0.8,0.6,0.9c0.3,0.1,0.5,0.2,0.7,0.3C62.1,80.5,62.9,83.2,61.7,85.4z"/></g><text font-family="'Helvetica Neue', Helvetica, Arial-Unicode, Arial, Sans-serif" font-weight="bold" font-size="5px" fill="#000000" y="115" x="0">Created by parkjisun</text><text font-family="'Helvetica Neue', Helvetica, Arial-Unicode, Arial, Sans-serif" font-weight="bold" font-size="5px" fill="#000000" y="120" x="0">from the Noun Project</text></svg>