<svg fill="#FFFFFF" xmlns="http://www.w3.org/2000/svg"  viewBox="0 0 30 30" width="30px" height="30px"><path d="M 6.984375 3.9863281 A 1.0001 1.0001 0 0 0 6 5 L 6 25 A 1.0001 1.0001 0 1 0 8 25 L 8 5 A 1.0001 1.0001 0 0 0 6.984375 3.9863281 z M 22.984375 3.9863281 A 1.0001 1.0001 0 0 0 22 5 L 22 25 A 1.0001 1.0001 0 1 0 24 25 L 24 5 A 1.0001 1.0001 0 0 0 22.984375 3.9863281 z M 2.984375 7.9863281 A 1.0001 1.0001 0 0 0 2 9 L 2 21 A 1.0001 1.0001 0 1 0 4 21 L 4 9 A 1.0001 1.0001 0 0 0 2.984375 7.9863281 z M 10.984375 8.9863281 A 1.0001 1.0001 0 0 0 10 10 L 10 20 A 1.0001 1.0001 0 1 0 12 20 L 12 10 A 1.0001 1.0001 0 0 0 10.984375 8.9863281 z M 18.984375 8.9863281 A 1.0001 1.0001 0 0 0 18 10 L 18 20 A 1.0001 1.0001 0 1 0 20 20 L 20 10 A 1.0001 1.0001 0 0 0 18.984375 8.9863281 z M 26.984375 10.986328 A 1.0001 1.0001 0 0 0 26 12 L 26 18 A 1.0001 1.0001 0 1 0 28 18 L 28 12 A 1.0001 1.0001 0 0 0 26.984375 10.986328 z M 14.984375 11.986328 A 1.0001 1.0001 0 0 0 14 13 L 14 17 A 1.0001 1.0001 0 1 0 16 17 L 16 13 A 1.0001 1.0001 0 0 0 14.984375 11.986328 z"/></svg>